<mxfile host="65bd71144e" modified="2021-01-25T12:55:35.433Z" agent="5.0 (Windows NT 10.0; Win64; x64) AppleWebKit/537.36 (KHTML, like Gecko) Code/1.52.1 Chrome/83.0.4103.122 Electron/9.3.5 Safari/537.36" version="13.10.0" etag="r7wk35NJW3xTf9fVEBQU" type="embed">
    <diagram id="8cLEkeHEPe_FGnIWLrFU" name="Page-1">
        <mxGraphModel dx="1025" dy="800" grid="1" gridSize="10" guides="1" tooltips="1" connect="1" arrows="1" fold="1" page="1" pageScale="1" pageWidth="827" pageHeight="1169" math="0" shadow="0">
            <root>
                <mxCell id="0"/>
                <mxCell id="1" parent="0"/>
                <mxCell id="2" value="" style="ellipse;whiteSpace=wrap;html=1;aspect=fixed;" vertex="1" parent="1">
                    <mxGeometry x="770" y="140" width="180" height="180" as="geometry"/>
                </mxCell>
                <mxCell id="3" value="" style="ellipse;whiteSpace=wrap;html=1;aspect=fixed;" vertex="1" parent="1">
                    <mxGeometry y="100" width="320" height="320" as="geometry"/>
                </mxCell>
                <mxCell id="4" value="1" style="rounded=0;whiteSpace=wrap;html=1;" vertex="1" parent="1">
                    <mxGeometry x="840" y="200" width="40" height="40" as="geometry"/>
                </mxCell>
                <mxCell id="6" value="CatÃ©gorie" style="rounded=0;whiteSpace=wrap;html=1;" vertex="1" parent="1">
                    <mxGeometry x="70" y="200" width="90" height="40" as="geometry"/>
                </mxCell>
                <mxCell id="7" value="id metadata&lt;br&gt;---------------&lt;br&gt;id metadata" style="rounded=0;whiteSpace=wrap;html=1;" vertex="1" parent="1">
                    <mxGeometry x="430" y="170" width="76" height="510" as="geometry"/>
                </mxCell>
                <mxCell id="8" value="Golf&lt;br&gt;---------------&lt;br&gt;Foot" style="rounded=0;whiteSpace=wrap;html=1;" vertex="1" parent="1">
                    <mxGeometry x="520" y="170" width="76" height="510" as="geometry"/>
                </mxCell>
                <mxCell id="9" value="id article&lt;br&gt;---------------&lt;br&gt;id article" style="rounded=0;whiteSpace=wrap;html=1;" vertex="1" parent="1">
                    <mxGeometry x="610" y="170" width="76" height="510" as="geometry"/>
                </mxCell>
                <mxCell id="10" value="id PK AI" style="rounded=0;whiteSpace=wrap;html=1;" vertex="1" parent="1">
                    <mxGeometry x="350" y="170" width="76" height="510" as="geometry"/>
                </mxCell>
            </root>
        </mxGraphModel>
    </diagram>
</mxfile>